<?xml version="1.0" encoding="UTF-8"?>
<svg version="1.1" xmlns="http://www.w3.org/2000/svg" width="501" height="498">
<path d="M0 0 C0.80945068 0.39614502 1.61890137 0.79229004 2.45288086 1.20043945 C14.03001205 6.96522021 25.19120292 13.53735689 36.24609375 20.23828125 C41.51467755 23.4071379 46.89590665 26.34328298 52.3125 29.25 C53.240625 29.74935059 54.16875 30.24870117 55.125 30.76318359 C57.03285191 31.78950571 58.94081225 32.81562628 60.84887695 33.84155273 C70.31452711 38.93892114 79.7015442 44.13883802 88.98217773 49.56591797 C93.91110088 52.44793547 98.88323469 55.2246137 103.9140625 57.92578125 C106.40457233 59.30083472 108.82530322 60.76229172 111.25 62.25 C114.77941982 64.3954426 118.35367784 66.30743152 122.0625 68.125 C130.8014843 72.41586376 139.17449334 77.3348359 147.5 82.375 C153.59166189 86.05786748 159.83669123 89.46936026 166.171875 92.71484375 C174.13470201 96.86123295 181.87212659 101.02238475 184.83984375 109.96484375 C186.11951458 116.15168208 186.46043307 122.24766081 186.45294189 128.54096985 C186.45739858 129.73402018 186.45739858 129.73402018 186.4619453 130.95117253 C186.4705626 133.59547034 186.47213457 136.23972251 186.47363281 138.8840332 C186.47826583 140.78852432 186.48329114 142.69301452 186.48867798 144.59750366 C186.50175508 149.75669454 186.50823745 154.91587244 186.51268864 160.0750773 C186.51562621 163.30211513 186.51973224 166.52914947 186.52419281 169.75618553 C186.53785376 179.86412263 186.54752796 189.97205167 186.5513947 200.07999736 C186.5558758 211.72785262 186.57343204 223.37559055 186.6023953 235.02341014 C186.6240386 244.04193018 186.63410035 253.06041726 186.63543582 262.07896298 C186.6364817 267.45878348 186.64234369 272.83849347 186.66025543 278.21828651 C186.67678253 283.28020991 186.67886913 288.34194025 186.67011642 293.40388107 C186.6693486 295.25532614 186.67365492 297.1067818 186.68357468 298.95820045 C186.79129277 320.32555942 186.79129277 320.32555942 181.62890625 329.1171875 C178.43939643 332.05390312 174.98213561 334.18921217 171.25 336.375 C170.46359131 336.84510498 169.67718262 337.31520996 168.86694336 337.79956055 C166.35565321 339.29500887 163.83545897 340.77433432 161.3125 342.25 C160.48008789 342.73903809 159.64767578 343.22807617 158.79003906 343.73193359 C147.88463476 350.1299695 136.86091014 356.26717064 125.7265625 362.2578125 C115.18489158 367.92978319 104.70166083 373.68083158 94.32763672 379.65429688 C87.43794943 383.61947236 80.5059573 387.50486769 73.5625 391.375 C65.60631425 395.81302481 57.70590007 400.32658885 49.87158203 404.97607422 C43.60483809 408.68941194 37.22144078 412.16199436 30.796875 415.59375 C25.80774604 418.28250213 20.90247102 421.07644599 16.03833008 423.98364258 C-5.71313953 436.96963019 -5.71313953 436.96963019 -16.6875 436.25 C-22.916865 434.65651049 -28.39661501 432.01265804 -33.9375 428.8125 C-34.70924561 428.37566895 -35.48099121 427.93883789 -36.27612305 427.48876953 C-38.75167939 426.08457469 -41.22026964 424.66876637 -43.6875 423.25 C-46.11505102 421.85769188 -48.54291259 420.46592739 -50.97094727 419.07446289 C-52.68157518 418.09405958 -54.39168502 417.11275185 -56.10131836 416.13061523 C-63.68488182 411.78807763 -71.33834967 407.57732268 -79 403.375 C-89.16590723 397.79856703 -99.22544851 392.07057424 -109.21972656 386.19018555 C-116.14895805 382.12173677 -123.1433501 378.19675364 -130.19946289 374.35327148 C-136.40256988 370.97138113 -142.54937511 367.49823001 -148.6875 364 C-156.19791401 359.72034066 -163.77507456 355.58800942 -171.41796875 351.55126953 C-180.6658924 346.66667653 -189.87716553 341.7746588 -198.6875 336.125 C-199.35700684 335.70009277 -200.02651367 335.27518555 -200.71630859 334.83740234 C-206.18588769 331.22235919 -209.62542154 327.48169665 -211.6875 321.25 C-211.98439447 318.68185014 -212.19129052 316.20296756 -212.30342102 313.62780762 C-212.34100975 312.88398818 -212.37859849 312.14016875 -212.41732627 311.37380934 C-212.82060454 302.65349669 -212.83565268 293.93286809 -212.83276367 285.20507812 C-212.83576472 283.36497938 -212.83916938 281.52488126 -212.84294128 279.68478394 C-212.85168074 274.74319176 -212.85411485 269.80161694 -212.85475707 264.86001778 C-212.85547233 261.76578215 -212.85761536 258.67155083 -212.86025429 255.57731628 C-212.86946819 244.76475752 -212.87359339 233.952211 -212.87280273 223.13964844 C-212.87220018 213.08462347 -212.88279689 203.02965183 -212.8985464 192.97464037 C-212.91163 184.31095647 -212.91698642 175.64729002 -212.91634732 166.98359632 C-212.91609296 161.82197653 -212.91891136 156.66040444 -212.92952538 151.49879456 C-212.93922239 146.65265074 -212.93927457 141.80660018 -212.93200874 136.96045303 C-212.93096552 135.18717945 -212.93331015 133.41389999 -212.9393692 131.64063644 C-213.01347655 108.44430309 -213.01347655 108.44430309 -206.328125 101.421875 C-194.44654184 91.64944861 -179.73171382 84.96155714 -166.25463867 77.71044922 C-151.35098573 69.67922175 -136.66569398 61.30185922 -122.0246582 52.80395508 C-120.80588989 52.09662231 -120.80588989 52.09662231 -119.5625 51.375 C-118.77125732 50.91569092 -117.98001465 50.45638184 -117.16479492 49.9831543 C-110.5704108 46.16358275 -103.9010362 42.50115719 -97.1796875 38.91015625 C-90.70148717 35.41966324 -84.35693437 31.73363907 -78.05224609 27.94042969 C-74.38208967 25.7528038 -70.68584891 23.71906226 -66.8515625 21.83203125 C-61.31434496 19.10563255 -55.97790317 16.06896135 -50.625 13 C-43.47264828 8.93445271 -36.31254767 4.88928545 -29.0625 1 C-28.04337524 0.4445752 -28.04337524 0.4445752 -27.00366211 -0.12207031 C-17.39823872 -5.22376686 -9.45750032 -4.77855825 0 0 Z " fill="#3949AA" transform="translate(263.6875,32.75)"/>
<path d="M0 0 C1.75751587 -0.0141394 1.75751587 -0.0141394 3.55053711 -0.02856445 C16.48403243 0.01946156 28.61268192 2.38371592 41.04443359 5.74414062 C42.74932528 6.19971653 44.46219105 6.62519539 46.17578125 7.046875 C64.93001049 12.09884018 82.33627528 23.78228757 96.9375 36.25 C97.67097656 36.85972656 98.40445313 37.46945313 99.16015625 38.09765625 C103.90902464 42.1145218 107.9680367 46.46993052 111.9375 51.25 C112.68386719 52.13171875 113.43023437 53.0134375 114.19921875 53.921875 C118.55709419 59.13691933 122.7214121 64.24663592 125.9375 70.25 C124.71254929 73.92485212 123.8579845 74.14787403 120.546875 75.96484375 C119.6199585 76.48022705 118.69304199 76.99561035 117.73803711 77.52661133 C116.73135986 78.07470459 115.72468262 78.62279785 114.6875 79.1875 C112.57910777 80.35619497 110.47104187 81.5254788 108.36328125 82.6953125 C107.29029785 83.28731445 106.21731445 83.87931641 105.11181641 84.48925781 C100.34056633 87.13579339 95.60749893 89.84747568 90.875 92.5625 C90.01165039 93.05524414 89.14830078 93.54798828 88.25878906 94.05566406 C84.39049078 96.26378673 80.5300583 98.48287178 76.69140625 100.7421875 C76.05017822 101.11690186 75.4089502 101.49161621 74.74829102 101.87768555 C73.07911262 102.85461738 71.41434425 103.83907381 69.75 104.82421875 C67.07779961 106.17887589 64.889249 106.84304931 61.9375 107.25 C61.44121094 106.60933594 60.94492187 105.96867187 60.43359375 105.30859375 C47.6944418 89.08853501 32.16834536 77.44352019 11.171875 74.52734375 C-9.364538 72.76637114 -28.71967132 76.4056984 -45.06640625 89.69140625 C-58.53169461 101.31898446 -68.62447417 116.30805957 -71.0625 134.25 C-72.64299923 156.24173864 -69.05829158 176.70870684 -54.2253418 193.86254883 C-41.55486545 207.9868348 -24.33786914 217.28440672 -5.29296875 218.48828125 C14.93978553 219.04592607 33.58221887 213.94358738 48.9375 200.25 C49.54980469 199.70730469 50.16210938 199.16460937 50.79296875 198.60546875 C55.62815021 194.04780323 59.28099709 188.77365333 62.9375 183.25 C66.54278468 184.62404207 69.90810125 186.22292946 73.3046875 188.05078125 C74.34431641 188.60967041 75.38394531 189.16855957 76.45507812 189.74438477 C77.56302734 190.34436279 78.67097656 190.94434082 79.8125 191.5625 C80.95912109 192.18116943 82.10574219 192.79983887 83.28710938 193.43725586 C91.98877696 198.14393584 100.61884867 202.9720488 109.19873047 207.89770508 C115.01627455 211.22424057 120.91172493 214.31720803 126.9375 217.25 C124.67417082 227.2644384 116.39864725 235.61186956 109.9375 243.25 C109.08296643 244.33304394 108.22872346 245.41631736 107.375 246.5 C104.17566107 250.10951058 100.60476407 253.13008878 96.9375 256.25 C96.36580078 256.76908936 95.79410156 257.28817871 95.20507812 257.82299805 C90.43278577 262.12148343 85.5013833 265.77722555 80.0625 269.1875 C79.24604004 269.70111084 78.42958008 270.21472168 77.58837891 270.74389648 C63.53370227 279.37516908 48.50532944 285.08149105 32.5 288.875 C31.18418945 289.19984375 31.18418945 289.19984375 29.84179688 289.53125 C9.5881591 294.36704856 -12.80807355 293.79954071 -33.0625 289.25 C-33.75005371 289.09966309 -34.43760742 288.94932617 -35.14599609 288.79443359 C-58.34241645 283.48214993 -80.39460432 271.14115405 -97.48828125 254.703125 C-99.51970783 252.7672587 -101.55925163 250.99457765 -103.75 249.25 C-120.1768414 235.34114158 -132.53258421 212.51094342 -138.75 192.1875 C-139.04455078 191.25873047 -139.33910156 190.32996094 -139.64257812 189.37304688 C-151.476721 151.47719608 -146.11831231 110.38068531 -128.15625 75.5 C-123.34551115 66.66716802 -117.50877224 58.93883924 -111.0625 51.25 C-110.33675781 50.38117188 -109.61101562 49.51234375 -108.86328125 48.6171875 C-104.61515376 43.69303186 -100.09740582 39.35894613 -95.0625 35.25 C-94.56476074 34.83991699 -94.06702148 34.42983398 -93.55419922 34.00732422 C-74.02333927 17.98659222 -52.82138081 7.52705824 -28.0625 2.25 C-26.969375 2.00507812 -25.87625 1.76015625 -24.75 1.5078125 C-16.55396114 0.01203541 -8.30986167 0.05044828 0 0 Z " fill="#FDFDFE" transform="translate(250.0625,102.75)"/>
<path d="M0 0 C0.80945068 0.39614502 1.61890137 0.79229004 2.45288086 1.20043945 C14.03001205 6.96522021 25.19120292 13.53735689 36.24609375 20.23828125 C41.51467755 23.4071379 46.89590665 26.34328298 52.3125 29.25 C53.240625 29.74935059 54.16875 30.24870117 55.125 30.76318359 C57.03285191 31.78950571 58.94081225 32.81562628 60.84887695 33.84155273 C70.31452711 38.93892114 79.7015442 44.13883802 88.98217773 49.56591797 C93.91110088 52.44793547 98.88323469 55.2246137 103.9140625 57.92578125 C106.40457233 59.30083472 108.82530322 60.76229172 111.25 62.25 C114.77941982 64.3954426 118.35367784 66.30743152 122.0625 68.125 C130.8014843 72.41586376 139.17449334 77.3348359 147.5 82.375 C153.62048411 86.07529268 159.90803002 89.46605773 166.2421875 92.78515625 C171.43871954 95.53833244 175.97650957 98.26557637 180.3125 102.25 C175.7123749 106.27390901 170.55441774 109.09041497 165.25 112.0625 C163.35522585 113.13368504 161.46069297 114.20529698 159.56640625 115.27734375 C158.65777832 115.79022949 157.74915039 116.30311523 156.81298828 116.83154297 C153.75342604 118.56714701 150.71846469 120.33996546 147.6875 122.125 C143.25563167 124.72277593 138.7685533 127.19745374 134.25 129.640625 C126.85414892 133.69260724 119.52811348 137.88549971 112.3125 142.25 C111.9 141.57195312 111.4875 140.89390625 111.0625 140.1953125 C105.62531172 131.43270103 99.71583702 123.45324683 92.3125 116.25 C91.57773437 115.32574219 90.84296875 114.40148437 90.0859375 113.44921875 C87.28755471 110.06601467 84.1074824 107.46340898 80.625 104.8125 C79.69264526 104.09537842 79.69264526 104.09537842 78.74145508 103.36376953 C76.93800906 101.98410188 75.12612753 100.61623816 73.3125 99.25 C72.47460938 98.60675781 71.63671875 97.96351563 70.7734375 97.30078125 C40.82784478 75.22748352 1.43369694 66.86004139 -35.15820312 72.07006836 C-38.69975149 72.67410624 -42.1925728 73.41997521 -45.6875 74.25 C-46.77949707 74.49943359 -46.77949707 74.49943359 -47.89355469 74.75390625 C-71.34394145 80.23818899 -91.59095832 91.46677028 -109.6875 107.25 C-110.46351563 107.89324219 -111.23953125 108.53648437 -112.0390625 109.19921875 C-118.05077491 114.29161431 -122.86332976 120.04150264 -127.6875 126.25 C-128.78384766 127.58804688 -128.78384766 127.58804688 -129.90234375 128.953125 C-142.25293727 144.49446939 -150.55279064 163.15739502 -155 182.4375 C-155.15968262 183.12529541 -155.31936523 183.81309082 -155.48388672 184.52172852 C-157.86246986 195.73786503 -157.86892379 207.27030531 -157.875 218.6875 C-157.89336914 220.49831055 -157.89336914 220.49831055 -157.91210938 222.34570312 C-157.93144433 234.39137789 -156.51510443 245.8795009 -152.875 257.375 C-152.48187622 258.64839233 -152.48187622 258.64839233 -152.08081055 259.94750977 C-148.56165651 271.37202743 -148.56165651 271.37202743 -142.91796875 281.81640625 C-141.6875 284.25 -141.6875 284.25 -142.09375 286.32421875 C-144.34707376 289.04698496 -147.10695212 290.45134926 -150.1875 292.0625 C-151.64041243 292.85085996 -153.09215068 293.64138615 -154.54296875 294.43359375 C-155.35427246 294.87429199 -156.16557617 295.31499023 -157.00146484 295.76904297 C-162.21252789 298.64218499 -167.35072623 301.64301235 -172.5 304.625 C-173.60988281 305.26550293 -174.71976563 305.90600586 -175.86328125 306.56591797 C-181.08843292 309.58213066 -186.30716383 312.60852917 -191.51171875 315.66015625 C-192.39174561 316.17465332 -193.27177246 316.68915039 -194.1784668 317.21923828 C-195.81363059 318.17612016 -197.44671777 319.1365623 -199.07739258 320.10107422 C-204.46422274 323.25 -204.46422274 323.25 -206.6875 323.25 C-206.6875 325.23 -206.6875 327.21 -206.6875 329.25 C-210.46482275 325.98776671 -211.52906486 322.62047077 -212.09645557 317.71251678 C-212.17576186 316.35150906 -212.24411417 314.98983339 -212.30342102 313.62780762 C-212.34100975 312.88398818 -212.37859849 312.14016875 -212.41732627 311.37380934 C-212.82060454 302.65349669 -212.83565268 293.93286809 -212.83276367 285.20507812 C-212.83576472 283.36497938 -212.83916938 281.52488126 -212.84294128 279.68478394 C-212.85168074 274.74319176 -212.85411485 269.80161694 -212.85475707 264.86001778 C-212.85547233 261.76578215 -212.85761536 258.67155083 -212.86025429 255.57731628 C-212.86946819 244.76475752 -212.87359339 233.952211 -212.87280273 223.13964844 C-212.87220018 213.08462347 -212.88279689 203.02965183 -212.8985464 192.97464037 C-212.91163 184.31095647 -212.91698642 175.64729002 -212.91634732 166.98359632 C-212.91609296 161.82197653 -212.91891136 156.66040444 -212.92952538 151.49879456 C-212.93922239 146.65265074 -212.93927457 141.80660018 -212.93200874 136.96045303 C-212.93096552 135.18717945 -212.93331015 133.41389999 -212.9393692 131.64063644 C-213.01347655 108.44430309 -213.01347655 108.44430309 -206.328125 101.421875 C-194.44654184 91.64944861 -179.73171382 84.96155714 -166.25463867 77.71044922 C-151.35098573 69.67922175 -136.66569398 61.30185922 -122.0246582 52.80395508 C-120.80588989 52.09662231 -120.80588989 52.09662231 -119.5625 51.375 C-118.77125732 50.91569092 -117.98001465 50.45638184 -117.16479492 49.9831543 C-110.5704108 46.16358275 -103.9010362 42.50115719 -97.1796875 38.91015625 C-90.70148717 35.41966324 -84.35693437 31.73363907 -78.05224609 27.94042969 C-74.38208967 25.7528038 -70.68584891 23.71906226 -66.8515625 21.83203125 C-61.31434496 19.10563255 -55.97790317 16.06896135 -50.625 13 C-43.47264828 8.93445271 -36.31254767 4.88928545 -29.0625 1 C-28.04337524 0.4445752 -28.04337524 0.4445752 -27.00366211 -0.12207031 C-17.39823872 -5.22376686 -9.45750032 -4.77855825 0 0 Z " fill="#5D6BBF" transform="translate(263.6875,32.75)"/>
<path d="M0 0 C3.17987589 3.01981503 5.66235395 5.77187551 7.75 9.625 C11.21918092 15.61803233 15.50768982 20.75109021 20 26 C20.61101562 26.73476563 21.22203125 27.46953125 21.8515625 28.2265625 C25.8624223 32.96999943 30.20306824 37.0596632 35 41 C35.66515625 41.55300781 36.3303125 42.10601562 37.015625 42.67578125 C54.17700231 56.50022409 74.42536495 67.19014598 96 72 C96.71236816 72.16081055 97.42473633 72.32162109 98.15869141 72.48730469 C126.6774017 78.61424798 161.85276739 76.76962178 188 63 C189.22577394 62.4148709 190.45382951 61.83450802 191.68359375 61.2578125 C204.58962633 55.13541807 216.45891704 47.88994205 226.8515625 38.0078125 C229 36 229 36 231.51171875 34.046875 C238.78500645 28.06382515 244.16926394 19.53689988 249.54956055 11.85986328 C254.33055217 5.03941395 254.33055217 5.03941395 257 2 C257.66 2 258.32 2 259 2 C259 2.66 259 3.32 259 4 C260.2375 4.3403125 260.2375 4.3403125 261.5 4.6875 C264.2581202 5.72179508 266.10000774 6.61509128 268.5 8.1875 C274.36323071 12.01234191 280.7170895 14.93796356 287 18 C287 18.66 287 19.32 287 20 C287.85851562 20.26554687 288.71703125 20.53109375 289.6015625 20.8046875 C293.02910808 22.01023801 296.14173798 23.47244386 299.375 25.125 C300.43460937 25.66382813 301.49421875 26.20265625 302.5859375 26.7578125 C303.38257813 27.16773438 304.17921875 27.57765625 305 28 C305 28.66 305 29.32 305 30 C305.515625 30.0825 306.03125 30.165 306.5625 30.25 C309.44539184 31.13704364 311.73375307 32.54519537 314.31640625 34.078125 C316.17268969 35.09455862 317.90979872 35.66556779 320 36 C320 36.66 320 37.32 320 38 C321.32 38.33 322.64 38.66 324 39 C323.8828125 41.21875 323.8828125 41.21875 323 44 C320.96989203 45.75243363 319.12979993 47.09677813 316.875 48.5 C316.2262793 48.91797852 315.57755859 49.33595703 314.90917969 49.76660156 C299.88872337 59.27978785 284.06448809 67.58986295 268.4140625 76.0078125 C257.87239158 81.67978319 247.38916083 87.43083158 237.01513672 93.40429688 C230.12544943 97.36947236 223.1934573 101.25486769 216.25 105.125 C208.29381425 109.56302481 200.39340007 114.07658885 192.55908203 118.72607422 C186.29233809 122.43941194 179.90894078 125.91199436 173.484375 129.34375 C168.49524604 132.03250213 163.58997102 134.82644599 158.72583008 137.73364258 C136.97436047 150.71963019 136.97436047 150.71963019 126 150 C119.770635 148.40651049 114.29088499 145.76265804 108.75 142.5625 C107.97825439 142.12566895 107.20650879 141.68883789 106.41137695 141.23876953 C103.93582061 139.83457469 101.46723036 138.41876637 99 137 C96.57244898 135.60769188 94.14458741 134.21592739 91.71655273 132.82446289 C90.00592482 131.84405958 88.29581498 130.86275185 86.58618164 129.88061523 C79.00261818 125.53807763 71.34915033 121.32732268 63.6875 117.125 C53.52159277 111.54856703 43.46205149 105.82057424 33.46777344 99.94018555 C26.53854195 95.87173677 19.5441499 91.94675364 12.48803711 88.10327148 C6.28493012 84.72138113 0.13812489 81.24823001 -6 77.75 C-13.51051031 73.47028579 -21.08757979 69.33758861 -28.73095703 65.30151367 C-37.99507481 60.40868565 -47.24500486 55.5072357 -56.125 49.9375 C-57.15439697 49.31270752 -57.15439697 49.31270752 -58.20458984 48.67529297 C-61.39842086 46.60318957 -62.90201557 45.22675632 -64.4296875 41.69140625 C-64.61789063 40.80324219 -64.80609375 39.91507812 -65 39 C-62.08567977 35.83123107 -59.21629541 33.80297165 -55.44140625 31.75 C-54.34328613 31.14744385 -53.24516602 30.5448877 -52.11376953 29.92407227 C-51.24489105 29.45337814 -51.24489105 29.45337814 -50.35845947 28.97317505 C-47.92163866 27.65273701 -45.49345157 26.31678285 -43.06469727 24.98158264 C-41.82959115 24.30272866 -40.59407515 23.62461991 -39.3581543 22.94725037 C-26.03783706 15.64307116 -12.85021548 8.10588732 0 0 Z " fill="#293592" transform="translate(121,319)"/>
<path d="M0 0 C5.06330777 4.5803461 9.44427667 9.16861373 13 15 C13.66 15.66 14.32 16.32 15 17 C12.03 17.99 9.06 18.98 6 20 C6 20.66 6 21.32 6 22 C5.35417969 22.30550781 4.70835937 22.61101562 4.04296875 22.92578125 C-3.75954148 26.714962 -11.22219353 30.95866332 -18.67504883 35.3918457 C-19.46548584 35.8580835 -20.25592285 36.32432129 -21.0703125 36.8046875 C-21.77945801 37.22733887 -22.48860352 37.64999023 -23.21923828 38.08544922 C-25 39 -25 39 -27 39 C-27 39.66 -27 40.32 -27 41 C-28.04800781 41.38865234 -28.04800781 41.38865234 -29.1171875 41.78515625 C-32.28441532 43.11985524 -35.15085438 44.71392887 -38.125 46.4375 C-38.72916748 46.78603027 -39.33333496 47.13456055 -39.95581055 47.49365234 C-42.67523796 49.0641465 -45.3889856 50.64434337 -48.10302734 52.22412109 C-50.3389404 53.52541136 -52.57547697 54.82561877 -54.8125 56.125 C-55.59898926 56.58189209 -56.38547852 57.03878418 -57.19580078 57.50952148 C-64.98179485 62.0172426 -72.83453577 66.40332287 -80.69555664 70.77856445 C-85.70581269 73.57269367 -90.69698675 76.39013102 -95.640625 79.30078125 C-96.9409668 80.06551758 -96.9409668 80.06551758 -98.26757812 80.84570312 C-99.87423916 81.79503628 -101.47736682 82.75038582 -103.07617188 83.71289062 C-106.69992958 85.85435106 -109.72639564 87.55413183 -114 88 C-114.98916033 85.64960987 -115.96636681 83.29533139 -116.9375 80.9375 C-117.21529297 80.28072266 -117.49308594 79.62394531 -117.77929688 78.94726562 C-124.57847805 62.317943 -122.33343185 41.03377132 -115.6796875 24.7734375 C-106.81673467 5.64302018 -90.93590608 -7.4229491 -71.5859375 -14.9375 C-46.7576217 -23.81084998 -19.69584357 -16.36270081 0 0 Z " fill="#5C6ABF" transform="translate(299,194)"/>
<path d="M0 0 C0 0.66 0 1.32 0 2 C0.55171875 2.11214844 1.1034375 2.22429687 1.671875 2.33984375 C4.40065211 3.11360773 6.72772943 4.26817694 9.25 5.5625 C10.14203125 6.01753906 11.0340625 6.47257812 11.953125 6.94140625 C12.62859375 7.29074219 13.3040625 7.64007813 14 8 C14 8.66 14 9.32 14 10 C15.00804687 10.2475 16.01609375 10.495 17.0546875 10.75 C21.13413889 11.91614413 24.51487649 13.81012288 28.125 16 C31.98574167 18.31142018 35.75263165 20.46133071 40 22 C40 22.66 40 23.32 40 24 C40.825 24.226875 41.65 24.45375 42.5 24.6875 C46.05232526 26.01962197 48.81455413 27.70683081 51.97265625 29.76171875 C54.86818282 31.53027737 57.85230947 32.74092379 61 34 C61.66 34.33 62.32 34.66 63 35 C58.08744177 48.61684829 45.40858044 58.5325814 33 65 C13.7559625 73.33486273 -6.60497506 74.88857102 -26.3125 67.4375 C-41.58241496 61.29834735 -54.70584277 50.29261023 -63 36 C-63.6875 33.70703125 -63.6875 33.70703125 -64 32 C-63.32839844 31.64550781 -62.65679687 31.29101562 -61.96484375 30.92578125 C-48.44563075 23.72134903 -35.15283943 16.10167739 -21.85888672 8.49169922 C-20.20326095 7.54476147 -18.54505151 6.60234531 -16.88671875 5.66015625 C-15.02138495 4.5874 -13.16859475 3.4923924 -11.33203125 2.37109375 C-10.54183594 1.89800781 -9.75164062 1.42492187 -8.9375 0.9375 C-8.28652344 0.53402344 -7.63554687 0.13054687 -6.96484375 -0.28515625 C-4.35601194 -1.23429387 -2.63191776 -0.72525983 0 0 Z " fill="#283592" transform="translate(250,250)"/>
<path d="M0 0 C0.33 0 0.66 0 1 0 C2.88690854 4.77121558 3.27657956 9.04821936 3.22705078 14.11669922 C3.22734283 14.90761459 3.22763489 15.69852997 3.22793579 16.51341248 C3.22654973 19.1106183 3.21102287 21.70753219 3.1953125 24.3046875 C3.19157979 26.11215051 3.18873404 27.91961554 3.18673706 29.7270813 C3.1791209 34.47161499 3.1594898 39.21602517 3.1373291 43.96051025 C3.11682715 48.80698984 3.10772605 53.65348949 3.09765625 58.5 C3.07624196 68.0000541 3.04213044 77.50001676 3 87 C2.34 87 1.68 87 1 87 C0.67 88.32 0.34 89.64 0 91 C0 60.97 0 30.94 0 0 Z " fill="#6A70B0" transform="translate(447,261)"/>
<path d="M0 0 C2.16930454 3.51797628 2.24290238 6.33118625 2.22705078 10.42089844 C2.22689972 11.72194519 2.22674866 13.02299194 2.22659302 14.36346436 C2.21638046 15.77876947 2.20594848 17.19407301 2.1953125 18.609375 C2.19158071 20.06097214 2.18873452 21.5125718 2.18673706 22.96417236 C2.17911364 26.77824907 2.15947635 30.59217262 2.1373291 34.40618896 C2.11684278 38.30071949 2.10772939 42.19527484 2.09765625 46.08984375 C2.07622915 53.7266322 2.04210892 61.36329461 2 69 C1.01 69.495 1.01 69.495 0 70 C-0.16999348 62.44199372 -0.32952677 54.88381571 -0.48217773 47.32543945 C-0.53517212 44.76028579 -0.5904612 42.19517836 -0.64819336 39.63012695 C-1.26061637 12.28410838 -1.26061637 12.28410838 0 0 Z " fill="#7D81B3" transform="translate(448,180)"/>
<path d="M0 0 C0.33 0 0.66 0 1 0 C1 16.5 1 33 1 50 C-1 49 -1 49 -1.61450195 47.41845703 C-2.1515738 44.04908798 -2.16266209 40.70743368 -2.16796875 37.3046875 C-2.17129715 36.55720245 -2.17462555 35.80971741 -2.17805481 35.0395813 C-2.18311033 33.45770887 -2.18546356 31.87582581 -2.18530273 30.29394531 C-2.18747356 27.90411141 -2.20559999 25.51475135 -2.22460938 23.125 C-2.25285875 15.20710437 -2.12752035 7.69764587 0 0 Z " fill="#7A82B8" transform="translate(105,222)"/>
<path d="M0 0 C1.23298828 -0.00128906 2.46597656 -0.00257812 3.73632812 -0.00390625 C5.03634766 -0.00003906 6.33636719 0.00382812 7.67578125 0.0078125 C8.95646484 0.00394531 10.23714844 0.00007813 11.55664062 -0.00390625 C13.41579102 -0.00197266 13.41579102 -0.00197266 15.3125 0 C17.01539185 0.00169189 17.01539185 0.00169189 18.75268555 0.00341797 C21.91241287 0.12977845 24.88488199 0.54199615 27.98828125 1.1328125 C27.98828125 1.4628125 27.98828125 1.7928125 27.98828125 2.1328125 C26.7053418 2.1625415 26.7053418 2.1625415 25.39648438 2.19287109 C21.42683688 2.28960052 17.45751183 2.39546416 13.48828125 2.5078125 C12.77909546 2.52760162 12.06990967 2.54739075 11.3392334 2.56777954 C2.02751467 2.83845055 -7.11243898 3.35595307 -16.30859375 4.92578125 C-19.01171875 5.1328125 -19.01171875 5.1328125 -22.01171875 3.1328125 C-20.40490234 2.93365234 -20.40490234 2.93365234 -18.765625 2.73046875 C-17.36846106 2.5523069 -15.97132716 2.37390931 -14.57421875 2.1953125 C-13.86716797 2.10830078 -13.16011719 2.02128906 -12.43164062 1.93164062 C-7.78900542 1.33187435 -4.75507405 0.00474795 0 0 Z " fill="#636BAE" transform="translate(239.01171875,100.8671875)"/>
<path d="M0 0 C1.53486493 2.88056232 2.59442876 5.68779809 3.515625 8.81640625 C7.56745271 22.48425149 7.56745271 22.48425149 13.93359375 35.171875 C15 37 15 37 15 39 C14.01 38.67 13.02 38.34 12 38 C10.85396865 35.66711176 9.86737454 33.4162469 8.9375 31 C7.43627853 26.216312 7.43627853 26.216312 4 23 C3.1484375 20.1640625 3.1484375 20.1640625 2.375 16.625 C2.11460938 15.46226562 1.85421875 14.29953125 1.5859375 13.1015625 C1 10 1 10 1 7 C0.34 7 -0.32 7 -1 7 C-1.04254356 5.00045254 -1.04080783 2.99958364 -1 1 C-0.67 0.67 -0.34 0.34 0 0 Z " fill="#6C74AE" transform="translate(107,280)"/>
<path d="M0 0 C4.64385284 0.51068763 7.5337453 1.68219803 11.375 4.3125 C15.80273374 7.25624637 20.19456377 9.7332848 25 12 C22.45297384 13.27351308 21.5717055 12.80191925 18.875 12.0625 C18.15054687 11.86785156 17.42609375 11.67320313 16.6796875 11.47265625 C16.12539063 11.31667969 15.57109375 11.16070312 15 11 C15 10.34 15 9.68 15 9 C9.06 8.01 9.06 8.01 3 7 C2 3 2 3 2 1 C1.34 0.67 0.68 0.34 0 0 Z " fill="#5C66B0" transform="translate(343,79)"/>
<path d="M0 0 C0.33 0 0.66 0 1 0 C1.02505615 1.30146973 1.0501123 2.60293945 1.07592773 3.94384766 C1.1703047 8.78573971 1.27045085 13.62749842 1.37231445 18.46923828 C1.41554894 20.56230544 1.45723185 22.65540526 1.49731445 24.74853516 C1.55529601 27.76214426 1.61890942 30.77559071 1.68359375 33.7890625 C1.70030624 34.72054108 1.71701874 35.65201965 1.73423767 36.61172485 C1.83775823 41.18152642 2.15995694 45.4943145 3 50 C2.87890625 52.7734375 2.87890625 52.7734375 2.5625 55.375 C2.46066406 56.24898438 2.35882813 57.12296875 2.25390625 58.0234375 C2.17011719 58.67570312 2.08632813 59.32796875 2 60 C1.67 60 1.34 60 1 60 C0.17333369 56.39589047 -0.12201844 53.07801993 -0.11352539 49.38354492 C-0.11344986 48.28278122 -0.11337433 47.18201752 -0.11329651 46.04789734 C-0.10813522 44.8706459 -0.10297394 43.69339447 -0.09765625 42.48046875 C-0.0962413 41.26676102 -0.09482635 40.05305328 -0.09336853 38.80256653 C-0.08777665 34.93085248 -0.07522558 31.05919653 -0.0625 27.1875 C-0.05748395 24.56054771 -0.05292123 21.93359451 -0.04882812 19.30664062 C-0.03780987 12.87107397 -0.02107976 6.43554114 0 0 Z " fill="#3A479D" transform="translate(447,206)"/>
<path d="M0 0 C0.66 0 1.32 0 2 0 C2.92151124 6.24579839 3.15188368 12.31629554 3.125 18.625 C3.12886719 19.54023438 3.13273437 20.45546875 3.13671875 21.3984375 C3.13000255 26.04605003 2.95675721 30.42882664 2 35 C-0.34894745 31.30995799 -0.23059746 28.1328897 -0.1953125 23.828125 C-0.1924826 23.1457074 -0.18965271 22.46328979 -0.18673706 21.76019287 C-0.17558098 19.58994693 -0.15048557 17.42012029 -0.125 15.25 C-0.11496426 13.77474556 -0.10583944 12.29948463 -0.09765625 10.82421875 C-0.07565687 7.21601058 -0.04115883 3.60804625 0 0 Z " fill="#525A9F" transform="translate(447,145)"/>
<path d="M0 0 C4.74726495 3.13044283 9.44266008 6.30874281 14.0625 9.625 C18.21887841 12.55853156 22.38691876 14.86431424 27 17 C23.98968256 17.93423645 23.13349732 18.04449911 20 17 C19.34 16.34 18.68 15.68 18 15 C17.34 14.855625 16.68 14.71125 16 14.5625 C14 14 14 14 12 11 C8.93443402 10.26656572 8.93443402 10.26656572 6 10 C6.33 9.01 6.66 8.02 7 7 C5.35 6.67 3.7 6.34 2 6 C2 5.01 2 4.02 2 3 C1.34 3 0.68 3 0 3 C0 2.01 0 1.02 0 0 Z " fill="#333D82" transform="translate(158,362)"/>
<path d="M0 0 C2.475 0.495 2.475 0.495 5 1 C3.60081984 4.40105614 2.17889389 5.84465247 -0.95703125 7.7265625 C-1.74013672 8.2009375 -2.52324219 8.6753125 -3.33007812 9.1640625 C-4.55887695 9.88722656 -4.55887695 9.88722656 -5.8125 10.625 C-6.62009766 11.11484375 -7.42769531 11.6046875 -8.25976562 12.109375 C-12.07735549 14.39805295 -15.77240075 16.54220715 -20 18 C-19.875 16.125 -19.875 16.125 -19 14 C-16.1875 12.8125 -16.1875 12.8125 -13 12 C-12.21625 11.79375 -11.4325 11.5875 -10.625 11.375 C-10.08875 11.25125 -9.5525 11.1275 -9 11 C-9 10.34 -9 9.68 -9 9 C-8.34 9 -7.68 9 -7 9 C-7 8.34 -7 7.68 -7 7 C-5.68 7 -4.36 7 -3 7 C-3 6.34 -3 5.68 -3 5 C-2.01 5 -1.02 5 0 5 C0 3.35 0 1.7 0 0 Z " fill="#61689E" transform="translate(440,359)"/>
<path d="M0 0 C5.625 -0.25 5.625 -0.25 9 2 C9 2.99 9 3.98 9 5 C10.32 5 11.64 5 13 5 C14.67387807 6.40605758 15.96517821 7.95884698 17.375 9.625 C19.48059676 11.4066588 21.30492384 11.63580052 24 12 C24 12.99 24 13.98 24 15 C18.36473475 13.49007247 13.99965796 10.67528581 9.1875 7.5 C8.41212891 7.00113281 7.63675781 6.50226563 6.83789062 5.98828125 C1.13216822 2.26433644 1.13216822 2.26433644 0 0 Z " fill="#515493" transform="translate(57,362)"/>
<path d="M0 0 C2.97 0.33 5.94 0.66 9 1 C9 1.66 9 2.32 9 3 C9.639375 3.226875 10.27875 3.45375 10.9375 3.6875 C13.62120429 4.83765898 16.17147025 6.0721541 18.75 7.4375 C19.52859375 7.84871094 20.3071875 8.25992187 21.109375 8.68359375 C23 10 23 10 24 13 C18.39523177 11.42195846 13.64949374 8.73583615 8.625 5.875 C7.79355469 5.40707031 6.96210937 4.93914062 6.10546875 4.45703125 C4.06765046 3.30929451 2.03264431 2.15686718 0 1 C0 0.67 0 0.34 0 0 Z " fill="#5B6198" transform="translate(88,381)"/>
<path d="M0 0 C5.36552315 4.73428513 8.81572507 10.63145014 12 17 C11.01 17 10.02 17 9 17 C9 16.34 9 15.68 9 15 C8.34 15 7.68 15 7 15 C7 14.01 7 13.02 7 12 C5.35 12.66 3.7 13.32 2 14 C2 12.68 2 11.36 2 10 C1.68493373 6.85778033 1.68493373 6.85778033 1 4 C0.34 3.67 -0.32 3.34 -1 3 C-0.67 2.01 -0.34 1.02 0 0 Z " fill="#323D85" transform="translate(121,319)"/>
<path d="M0 0 C0.66 0.33 1.32 0.66 2 1 C0.49049406 4.57087427 -1.60606226 6.81385442 -4.375 9.5 C-5.14585937 10.2528125 -5.91671875 11.005625 -6.7109375 11.78125 C-7.84402344 12.87953125 -7.84402344 12.87953125 -9 14 C-10.33561058 15.33105219 -11.66970732 16.66363293 -13 18 C-13.66 17.67 -14.32 17.34 -15 17 C-10.43071457 10.83146467 -5.55661824 5.29682829 0 0 Z " fill="#6670AE" transform="translate(204,192)"/>
<path d="M0 0 C5.53374233 0.75460123 5.53374233 0.75460123 7.78125 1.9375 C10.69422585 3.33244618 13.59920906 3.93182599 16.75 4.625 C17.92046875 4.88539063 19.0909375 5.14578125 20.296875 5.4140625 C21.18890625 5.60742188 22.0809375 5.80078125 23 6 C23 6.66 23 7.32 23 8 C14.25109262 8.5584409 7.34766045 5.53366283 0 1 C0 0.67 0 0.34 0 0 Z " fill="#5A5D97" transform="translate(231,461)"/>
<path d="M0 0 C1 3 1 3 0.3190918 4.85351562 C-0.05046631 5.53091797 -0.42002441 6.20832031 -0.80078125 6.90625 C-1.20103516 7.65003906 -1.60128906 8.39382812 -2.01367188 9.16015625 C-2.44228516 9.93230469 -2.87089844 10.70445312 -3.3125 11.5 C-3.72951172 12.27214844 -4.14652344 13.04429687 -4.57617188 13.83984375 C-6.28599891 16.98679813 -8.0114228 20.01713419 -10 23 C-10 20.03 -10 17.06 -10 14 C-9.34 14 -8.68 14 -8 14 C-7.71382813 13.42765625 -7.42765625 12.8553125 -7.1328125 12.265625 C-5.421875 8.84375 -3.7109375 5.421875 -2 2 C-1.34 2 -0.68 2 0 2 C0 1.34 0 0.68 0 0 Z " fill="#646CAC" transform="translate(125,170)"/>
<path d="M0 0 C0.33 0.33 0.66 0.66 1 1 C2.66617115 1.04063832 4.33388095 1.042721 6 1 C2.53928245 3.9517885 -0.76756692 6.28901641 -5 8 C-7.375 7.6875 -7.375 7.6875 -9 7 C-9 6.34 -9 5.68 -9 5 C-3.64285714 0 -3.64285714 0 0 0 Z " fill="#51559B" transform="translate(389,390)"/>
<path d="M0 0 C18.8 -0.6 18.8 -0.6 26 3 C26 3.66 26 4.32 26 5 C26.66 5.33 27.32 5.66 28 6 C26.95585937 5.7834375 26.95585937 5.7834375 25.890625 5.5625 C21.79331892 4.76518638 17.67072114 4.14372232 13.546875 3.5 C11 3 11 3 10 2 C8.31816052 1.76712992 6.6287584 1.58735834 4.9375 1.4375 C4.01839844 1.35371094 3.09929687 1.26992187 2.15234375 1.18359375 C1.08693359 1.09271484 1.08693359 1.09271484 0 1 C0 0.67 0 0.34 0 0 Z " fill="#6871AF" transform="translate(246,176)"/>
<path d="M0 0 C0.66 0 1.32 0 2 0 C2.33951619 1.56116819 2.67132544 3.12401338 3 4.6875 C3.185625 5.55761719 3.37125 6.42773438 3.5625 7.32421875 C3.98972047 9.93712964 4.07616201 12.35813038 4 15 C4.66 15 5.32 15 6 15 C6.33 17.64 6.66 20.28 7 23 C1.58205778 16.3556468 -0.63891598 8.46563667 0 0 Z " fill="#646DAB" transform="translate(179,259)"/>
<path d="M0 0 C1.32 0.33 2.64 0.66 4 1 C1.20942528 2.81418551 -1.58264289 4.62605934 -4.375 6.4375 C-5.56609375 7.2119043 -5.56609375 7.2119043 -6.78125 8.00195312 C-7.92207031 8.74155273 -7.92207031 8.74155273 -9.0859375 9.49609375 C-9.7876709 9.95169678 -10.4894043 10.4072998 -11.21240234 10.87670898 C-13 12 -13 12 -15 13 C-15 10 -15 10 -13.3125 8 C-9.04131492 4.30600209 -5.64089164 2.65591763 0 2 C0 1.34 0 0.68 0 0 Z " fill="#6670AD" transform="translate(178,119)"/>
<path d="M0 0 C3.14952839 0.6998952 6.0652503 1.65160149 9 3 C9.33 3.66 9.66 4.32 10 5 C11.1446875 5.6496875 11.1446875 5.6496875 12.3125 6.3125 C15.27899385 8.17518219 16.94844894 10.18861522 19 13 C14.8024494 13 12.6442792 10.69386003 9.5 8.1875 C8.91863281 7.73568359 8.33726562 7.28386719 7.73828125 6.81835938 C5.00959506 4.67974377 2.36426145 2.54158106 0 0 Z " fill="#6D76B2" transform="translate(330,126)"/>
<path d="M0 0 C0.33 0.99 0.66 1.98 1 3 C0.5155542 3.36714111 0.0311084 3.73428223 -0.46801758 4.11254883 C-2.6395525 6.78794906 -2.43153083 8.78321331 -2.51171875 12.19921875 C-2.56489258 14.01196289 -2.56489258 14.01196289 -2.61914062 15.86132812 C-2.64169922 17.12396484 -2.66425781 18.38660156 -2.6875 19.6875 C-2.72166016 20.96173828 -2.75582031 22.23597656 -2.79101562 23.54882812 C-2.87360784 26.69913103 -2.94272335 29.84915157 -3 33 C-3.33 33 -3.66 33 -4 33 C-4.22547184 28.56319547 -4.42745053 24.12562853 -4.625 19.6875 C-4.68945312 18.42486328 -4.75390625 17.16222656 -4.8203125 15.86132812 C-4.871875 14.65283203 -4.9234375 13.44433594 -4.9765625 12.19921875 C-5.02893066 11.08377686 -5.08129883 9.96833496 -5.13525391 8.8190918 C-5 6 -5 6 -3 3 C-2.34 3 -1.68 3 -1 3 C-0.67 2.01 -0.34 1.02 0 0 Z " fill="#5E67B0" transform="translate(57,138)"/>
<path d="M0 0 C4.59306496 1.4859916 7.43569245 3.85014682 11 7 C7.69564916 8.12377697 5.9493138 7.89554742 2.75 6.5625 C2.04359375 6.27503906 1.3371875 5.98757812 0.609375 5.69140625 C0.07828125 5.46324219 -0.4528125 5.23507813 -1 5 C-0.67 3.35 -0.34 1.7 0 0 Z " fill="#7D84BF" transform="translate(433,128)"/>
<path d="M0 0 C8.21730585 1.02716323 14.70007224 5.97346189 21 11 C20.67 11.66 20.34 12.32 20 13 C19.45730469 12.57847656 18.91460937 12.15695313 18.35546875 11.72265625 C17.64003906 11.17480469 16.92460937 10.62695312 16.1875 10.0625 C15.12595703 9.24458984 15.12595703 9.24458984 14.04296875 8.41015625 C11.95874948 6.83143752 11.95874948 6.83143752 9 6 C9 5.34 9 4.68 9 4 C4.545 3.01 4.545 3.01 0 2 C0 1.34 0 0.68 0 0 Z " fill="#626CA6" transform="translate(275,181)"/>
<path d="M0 0 C0.33 0.99 0.66 1.98 1 3 C-0.32 3.33 -1.64 3.66 -3 4 C-2.67 5.32 -2.34 6.64 -2 8 C-4.52475462 9.26237731 -6.31200466 9.09856404 -9.125 9.0625 C-10.03507812 9.05347656 -10.94515625 9.04445313 -11.8828125 9.03515625 C-12.58148438 9.02355469 -13.28015625 9.01195312 -14 9 C-11.03786426 6.69534766 -7.97847243 4.72409552 -4.75 2.8125 C-3.85796875 2.28269531 -2.9659375 1.75289063 -2.046875 1.20703125 C-1.03367187 0.60955078 -1.03367187 0.60955078 0 0 Z " fill="#363F8A" transform="translate(330,371)"/>
<path d="M0 0 C-2.475 3.465 -2.475 3.465 -5 7 C-5.33 6.34 -5.66 5.68 -6 5 C-6.99 5.495 -6.99 5.495 -8 6 C-9.99960012 6.039992 -12.00047242 6.04346799 -14 6 C-5.66176471 -0.48529412 -5.66176471 -0.48529412 0 0 Z M-7 7 C-6.67 7.66 -6.34 8.32 -6 9 C-6.66 8.67 -7.32 8.34 -8 8 C-7.67 7.67 -7.34 7.34 -7 7 Z " fill="#7A81BB" transform="translate(219,45)"/>
<path d="M0 0 C1.28357682 0.64178841 2.55597378 1.30674416 3.8125 2 C7.20518396 3.55094124 10.28607424 4 14 4 C13.814375 4.61875 13.62875 5.2375 13.4375 5.875 C12.76313824 8.04160178 12.76313824 8.04160178 14 10 C10.20950293 8.57250019 6.72877544 6.83763458 3.1875 4.875 C2.21167969 4.33617187 1.23585937 3.79734375 0.23046875 3.2421875 C-0.50558594 2.83226562 -1.24164063 2.42234375 -2 2 C-1.34 1.34 -0.68 0.68 0 0 Z " fill="#62689F" transform="translate(192,437)"/>
<path d="M0 0 C0.99 0.33 1.98 0.66 3 1 C3 1.99 3 2.98 3 4 C3.66 4 4.32 4 5 4 C5 4.66 5 5.32 5 6 C6.32 6.66 7.64 7.32 9 8 C9 8.66 9 9.32 9 10 C11.475 10.99 11.475 10.99 14 12 C14 12.66 14 13.32 14 14 C14.66 14.33 15.32 14.66 16 15 C10.77817006 14.12580972 7.74466006 10.4914351 4 7 C3.175 6.2575 2.35 5.515 1.5 4.75 C0 3 0 3 0 0 Z " fill="#333B7E" transform="translate(194,293)"/>
<path d="M0 0 C0.66 0 1.32 0 2 0 C0.86728288 3.39815137 -0.1909314 4.28644916 -2.875 6.5625 C-3.92300781 7.46162109 -3.92300781 7.46162109 -4.9921875 8.37890625 C-7 10 -7 10 -10 12 C-10 9.33579484 -9.90837763 7.47739354 -9 5 C-8.01 4.67 -7.02 4.34 -6 4 C-5.34 4.33 -4.68 4.66 -4 5 C-4 4.34 -4 3.68 -4 3 C-2.68 2.67 -1.36 2.34 0 2 C0 1.34 0 0.68 0 0 Z " fill="#6D76B4" transform="translate(158,133)"/>
<path d="M0 0 C0 0.33 0 0.66 0 1 C-2.89444095 1.6732656 -5.79030013 2.33880404 -8.6875 3 C-9.50412109 3.19078125 -10.32074219 3.3815625 -11.16210938 3.578125 C-15.17239326 4.48733916 -18.85717252 5.27000098 -23 5 C-15.73028503 0.15352336 -8.57238313 -0.43262494 0 0 Z " fill="#6E77B1" transform="translate(245,177)"/>
<path d="M0 0 C4.51451314 1.3489311 8.32277281 3.16618294 12.375 5.5625 C13.43460937 6.18253906 14.49421875 6.80257812 15.5859375 7.44140625 C16.38257813 7.95574219 17.17921875 8.47007813 18 9 C18 9.33 18 9.66 18 10 C16.35 10 14.7 10 13 10 C12.67 9.01 12.34 8.02 12 7 C11.319375 6.9175 10.63875 6.835 9.9375 6.75 C6.1253093 5.77667472 3.35929671 4.04192545 0 2 C0 1.34 0 0.68 0 0 Z " fill="#8A90C0" transform="translate(268,36)"/>
<path d="M0 0 C5.94098539 0.37131159 10.4040101 2.12143291 15 6 C15.33 6.99 15.66 7.98 16 9 C10.0942118 7.44584521 5.02261107 4.40465533 0 1 C0 0.67 0 0.34 0 0 Z " fill="#61659A" transform="translate(112,394)"/>
<path d="M0 0 C0 4.01740017 -1.67868088 6.82884202 -4 10 C-6.1875 11.25 -6.1875 11.25 -8 12 C-8.33 12.99 -8.66 13.98 -9 15 C-9.99 14.67 -10.98 14.34 -12 14 C-8.04 9.38 -4.08 4.76 0 0 Z " fill="#E3E9F6" transform="translate(147,145)"/>
<path d="M0 0 C0.99 0.99 1.98 1.98 3 3 C2.67 3.99 2.34 4.98 2 6 C-0.5625 7.1875 -0.5625 7.1875 -3 8 C-3.66 7.34 -4.32 6.68 -5 6 C-3.63016497 2.83884224 -3.0109362 2.0072908 0 0 Z " fill="#EDF0F7" transform="translate(373,170)"/>
<path d="M0 0 C-0.66 2.31 -1.32 4.62 -2 7 C-2.99 7 -3.98 7 -5 7 C-5.33 6.67 -5.66 6.34 -6 6 C-7.66617115 5.95936168 -9.33388095 5.957279 -11 6 C-8.24029211 2.78034079 -4.3526723 0 0 0 Z " fill="#787FBE" transform="translate(86,118)"/>
<path d="M0 0 C5.75 1.75 5.75 1.75 8 4 C4.37 4.66 0.74 5.32 -3 6 C-3 5.01 -3 4.02 -3 3 C-2.34 3 -1.68 3 -1 3 C-0.67 2.01 -0.34 1.02 0 0 Z " fill="#6E79BD" transform="translate(260,32)"/>
<path d="M0 0 C0.66 0.268125 1.32 0.53625 2 0.8125 C-1.7559214 4.24181954 -6.23466745 5.37679083 -11 6.8125 C-11 6.1525 -11 5.4925 -11 4.8125 C-7.62365257 1.9723467 -4.47602466 -0.27975154 0 0 Z " fill="#E8EFF9" transform="translate(314,378.1875)"/>
<path d="M0 0 C0.66 0.33 1.32 0.66 2 1 C1.01 1.33 0.02 1.66 -1 2 C-0.01 2.99 0.98 3.98 2 5 C1.34 5 0.68 5 0 5 C0 5.99 0 6.98 0 8 C0.66 8 1.32 8 2 8 C2.33 8.99 2.66 9.98 3 11 C2.01 11 1.02 11 0 11 C-4 4.25 -4 4.25 -4 2 C-2.125 0.9375 -2.125 0.9375 0 0 Z " fill="#36408A" transform="translate(190,280)"/>
<path d="M0 0 C0.66 0.66 1.32 1.32 2 2 C0.35 7.94 -1.3 13.88 -3 20 C-4.00668882 15.97324473 -3.88294162 14.0025417 -3.1875 10 C-3.01605469 8.96875 -2.84460938 7.9375 -2.66796875 6.875 C-2.06537726 4.28138985 -1.31059863 2.30046004 0 0 Z " fill="#626CA6" transform="translate(110,201)"/>
<path d="M0 0 C4.29 0.33 8.58 0.66 13 1 C13 1.99 13 2.98 13 4 C7.66404866 4.27131956 4.38616179 4.4266889 0 1 C0 0.67 0 0.34 0 0 Z " fill="#666FBA" transform="translate(322,121)"/>
<path d="M0 0 C0.66 0.33 1.32 0.66 2 1 C-1.85623679 6.66384778 -1.85623679 6.66384778 -5.11328125 7.62109375 C-7.06660622 7.84661084 -9.03482858 7.93338402 -11 8 C-8.83385197 5.69125289 -6.60793392 3.94709819 -3.9375 2.25 C-2.89916016 1.57710938 -2.89916016 1.57710938 -1.83984375 0.890625 C-1.23269531 0.59671875 -0.62554687 0.3028125 0 0 Z " fill="#E3E9F6" transform="translate(182,119)"/>
<path d="M0 0 C2.69497729 2.69497729 2.66052214 4.19784795 3 8 C2.78996448 11.35056656 2.42767299 14.67073025 2 18 C1.67 18 1.34 18 1 18 C0.04380267 14.00204108 -0.1039592 10.29196078 -0.0625 6.1875 C-0.05347656 5.02605469 -0.04445313 3.86460937 -0.03515625 2.66796875 C-0.02355469 1.78753906 -0.01195312 0.90710938 0 0 Z " fill="#5259A2" transform="translate(447,248)"/>
<path d="M0 0 C3.59634744 3.49359465 6.83451967 7.11098131 10 11 C8.35 11 6.7 11 5 11 C3.15172566 7.3874638 1.44950455 3.7910119 0 0 Z " fill="#6C76AE" transform="translate(304,200)"/>
<path d="M0 0 C1.32 0.33 2.64 0.66 4 1 C4 1.99 4 2.98 4 4 C6.97 4.495 6.97 4.495 10 5 C10 5.99 10 6.98 10 8 C6.4134946 6.66786942 3.12317517 5.23083941 0 3 C0 2.01 0 1.02 0 0 Z " fill="#595D9A" transform="translate(130,402)"/>
<path d="M0 0 C0.33 1.32 0.66 2.64 1 4 C0.34 4 -0.32 4 -1 4 C-1.33 4.66 -1.66 5.32 -2 6 C-4.8986087 7.75986957 -7.67277559 8.4454626 -11 9 C-9.948125 8.1646875 -9.948125 8.1646875 -8.875 7.3125 C-5.88655739 4.90875268 -2.94059762 2.46189568 0 0 Z " fill="#353C81" transform="translate(345,360)"/>
<path d="M0 0 C-1.23263349 3.69790046 -2.20052451 3.9354846 -5.5625 5.6875 C-6.80193359 6.34298828 -6.80193359 6.34298828 -8.06640625 7.01171875 C-8.70449219 7.33785156 -9.34257812 7.66398437 -10 8 C-10 7.01 -10 6.02 -10 5 C-8.57421875 3.61328125 -8.57421875 3.61328125 -6.6875 2.3125 C-6.07261719 1.87550781 -5.45773437 1.43851562 -4.82421875 0.98828125 C-3 0 -3 0 0 0 Z " fill="#393F82" transform="translate(297,304)"/>
<path d="M0 0 C0.33 0.66 0.66 1.32 1 2 C-0.04846541 3.46845587 -1.11443761 4.92442099 -2.1875 6.375 C-2.77917969 7.18710937 -3.37085938 7.99921875 -3.98046875 8.8359375 C-6.19553039 11.20952387 -7.93353141 12.03610141 -11 13 C-10.62488281 12.56429688 -10.24976563 12.12859375 -9.86328125 11.6796875 C-6.54140223 7.81392401 -3.25357073 3.92342352 0 0 Z " fill="#D8DDF0" transform="translate(308,293)"/>
<path d="M0 0 C-0.33 1.65 -0.66 3.3 -1 5 C-4.3 5.33 -7.6 5.66 -11 6 C-3.8 0 -3.8 0 0 0 Z " fill="#8086BA" transform="translate(134,91)"/>
<path d="M0 0 C1.40167793 2.80335585 0.96536981 4.0349356 0 7 C-2.4375 9.8125 -2.4375 9.8125 -5 12 C-5.66 12 -6.32 12 -7 12 C-5.61735163 9.13132769 -4.07851447 6.43975968 -2.375 3.75 C-1.92898438 3.04359375 -1.48296875 2.3371875 -1.0234375 1.609375 C-0.68570312 1.07828125 -0.34796875 0.5471875 0 0 Z " fill="#3F4888" transform="translate(376,323)"/>
<path d="M0 0 C2.25 0.4375 2.25 0.4375 5 2 C6.64993735 4.88343685 7.85322492 7.88640956 9 11 C8.01 11.495 8.01 11.495 7 12 C5.83061933 10.18924982 4.66456267 8.37635257 3.5 6.5625 C2.8503125 5.55316406 2.200625 4.54382813 1.53125 3.50390625 C0 1 0 1 0 0 Z " fill="#646EAB" transform="translate(367,160)"/>
<path d="M0 0 C3.96 1.98 7.92 3.96 12 6 C9.54483734 7.22758133 8.6424397 6.94817626 6 6.375 C5.29875 6.23835938 4.5975 6.10171875 3.875 5.9609375 C2 5 2 5 0 0 Z " fill="#7C86B9" transform="translate(356,85)"/>
<path d="M0 0 C2.91517292 1.07401108 4.77810176 1.77810176 7 4 C6.34 4 5.68 4 5 4 C5.33 5.32 5.66 6.64 6 8 C3.5625 7.375 3.5625 7.375 1 6 C0.1875 2.875 0.1875 2.875 0 0 Z " fill="#767DC3" transform="translate(327,69)"/>
<path d="M0 0 C-2.87949147 2.23960447 -5.76742026 4.29864224 -9 6 C-9.66 5.67 -10.32 5.34 -11 5 C-11 4.34 -11 3.68 -11 3 C-10.34 3 -9.68 3 -9 3 C-9 2.34 -9 1.68 -9 1 C-5.92677456 0.08941469 -3.19902639 -0.08886184 0 0 Z " fill="#6E70A2" transform="translate(324,431)"/>
<path d="M0 0 C3.68754757 0.49831724 5.60490662 1.10067643 8 4 C5.6875 4.625 5.6875 4.625 3 5 C2.01 4.34 1.02 3.68 0 3 C0 2.01 0 1.02 0 0 Z " fill="#292E80" transform="translate(175,426)"/>
<path d="M0 0 C2.97 0.33 5.94 0.66 9 1 C9 1.66 9 2.32 9 3 C9.66 3.33 10.32 3.66 11 4 C11 4.66 11 5.32 11 6 C7.2089881 4.55049545 3.6125362 2.84827434 0 1 C0 0.67 0 0.34 0 0 Z " fill="#696BA3" transform="translate(88,381)"/>
<path d="M0 0 C0.66 0.33 1.32 0.66 2 1 C1.67 1.99 1.34 2.98 1 4 C-1.06640625 4.94921875 -1.06640625 4.94921875 -3.5625 5.6875 C-4.38878906 5.93886719 -5.21507812 6.19023438 -6.06640625 6.44921875 C-6.70449219 6.63097656 -7.34257812 6.81273438 -8 7 C-8.33 6.34 -8.66 5.68 -9 5 C-7.54735962 4.1361871 -6.0876837 3.28419546 -4.625 2.4375 C-3.40683594 1.72400391 -3.40683594 1.72400391 -2.1640625 0.99609375 C-1.44992188 0.66738281 -0.73578125 0.33867188 0 0 Z " fill="#898EBF" transform="translate(157,77)"/>
<path d="M0 0 C0.66 0.33 1.32 0.66 2 1 C2 1.99 2 2.98 2 4 C-1.83887763 5.48320272 -4.06204091 6.22419163 -8 5 C-6.71475739 4.13619741 -5.42157581 3.28419631 -4.125 2.4375 C-3.04605469 1.72400391 -3.04605469 1.72400391 -1.9453125 0.99609375 C-1.30335938 0.66738281 -0.66140625 0.33867188 0 0 Z " fill="#848ABD" transform="translate(203,51)"/>
<path d="M0 0 C2.9375 0.375 2.9375 0.375 6 1 C6.33 1.66 6.66 2.32 7 3 C9.52733235 3.65555119 9.52733235 3.65555119 12 4 C12 4.99 12 5.98 12 7 C7.39104317 5.68315519 3.85859765 3.84801255 0 1 C0 0.67 0 0.34 0 0 Z " fill="#787EAA" transform="translate(69,370)"/>
<path d="M0 0 C0.66 0.33 1.32 0.66 2 1 C-0.88406243 4.40843742 -2.3708265 5.86591384 -6.8125 6.8125 C-8.3903125 6.9053125 -8.3903125 6.9053125 -10 7 C-6.81404865 4.36021174 -3.69029454 1.89501612 0 0 Z " fill="#8D90C1" transform="translate(169,70)"/>
<path d="M0 0 C1.32 0 2.64 0 4 0 C4 0.66 4 1.32 4 2 C5.65 2 7.3 2 9 2 C8.67 2.66 8.34 3.32 8 4 C5.67843403 4.40729228 3.3431213 4.74438677 1 5 C0.67 3.35 0.34 1.7 0 0 Z " fill="#273286" transform="translate(305,433)"/>
<path d="M0 0 C0.886875 0.103125 1.77375 0.20625 2.6875 0.3125 C-0.19199147 2.55210447 -3.07992026 4.61114224 -6.3125 6.3125 C-6.9725 5.9825 -7.6325 5.6525 -8.3125 5.3125 C-4.12788462 0.38942308 -4.12788462 0.38942308 0 0 Z " fill="#686BA1" transform="translate(335.3125,422.6875)"/>
<path d="M0 0 C0.80566406 0.17144531 1.61132812 0.34289062 2.44140625 0.51953125 C4.4375 1.1875 4.4375 1.1875 5.4375 3.1875 C3.99913249 3.07291307 2.56179034 2.94540884 1.125 2.8125 C0.32449219 2.74289062 -0.47601563 2.67328125 -1.30078125 2.6015625 C-3.5625 2.1875 -3.5625 2.1875 -6.5625 0.1875 C-3.9640401 -1.11172995 -2.80288549 -0.62536289 0 0 Z " fill="#434D8A" transform="translate(234.5625,317.8125)"/>
<path d="M0 0 C0.33 0 0.66 0 1 0 C0.67 2.97 0.34 5.94 0 9 C-1.32 9 -2.64 9 -4 9 C-2.80100302 5.9168649 -1.52299523 2.93720508 0 0 Z " fill="#6A73B2" transform="translate(188,210)"/>
<path d="M0 0 C0 0.66 0 1.32 0 2 C-0.66 2 -1.32 2 -2 2 C-2.66 3.32 -3.32 4.64 -4 6 C-6.31 6 -8.62 6 -11 6 C-10.01 5.34 -9.02 4.68 -8 4 C-6.989375 3.29875 -5.97875 2.5975 -4.9375 1.875 C-2 0 -2 0 0 0 Z " fill="#485199" transform="translate(322,206)"/>
<path d="M0 0 C2.31 0 4.62 0 7 0 C3.37464179 3.17218843 -0.51150278 4.42902597 -5 6 C-5 5.34 -5 4.68 -5 4 C-4.0409375 3.8453125 -4.0409375 3.8453125 -3.0625 3.6875 C-2.381875 3.460625 -1.70125 3.23375 -1 3 C-0.67 2.01 -0.34 1.02 0 0 Z " fill="#6870AE" transform="translate(193,111)"/>
<path d="M0 0 C0 0.99 0 1.98 0 3 C-2.35953094 5.35953094 -3.77895617 5.49141413 -7 6 C-6.3125 3.5625 -6.3125 3.5625 -5 1 C-2.375 0.1875 -2.375 0.1875 0 0 Z " fill="#5F66B1" transform="translate(199,56)"/>
<path d="M0 0 C4.75 0.875 4.75 0.875 7 2 C7 2.66 7 3.32 7 4 C6.01 4 5.02 4 4 4 C3.67 4.99 3.34 5.98 3 7 C0 3.375 0 3.375 0 0 Z " fill="#253487" transform="translate(438,356)"/>
<path d="M0 0 C3.63 1.65 7.26 3.3 11 5 C11 5.33 11 5.66 11 6 C6.78121808 6.19622241 3.82989106 5.80230168 0 4 C0 2.68 0 1.36 0 0 Z " fill="#DFE6F3" transform="translate(212,311)"/>
<path d="M0 0 C2.39073445 3.82517513 2.55966552 7.59665524 3 12 C2.34 11.34 1.68 10.68 1 10 C1 9.01 1 8.02 1 7 C0.34 7 -0.32 7 -1 7 C-1.04254356 5.00045254 -1.04080783 2.99958364 -1 1 C-0.67 0.67 -0.34 0.34 0 0 Z " fill="#6370A8" transform="translate(107,280)"/>
<path d="M0 0 C0.33 0.99 0.66 1.98 1 3 C-5.625 5.125 -5.625 5.125 -9 4 C-2.25 0 -2.25 0 0 0 Z " fill="#8990C6" transform="translate(227,39)"/>
<path d="M0 0 C-4.58031088 2.99481865 -4.58031088 2.99481865 -7 4 C-9.4375 3.25 -9.4375 3.25 -11 2 C-3.57142857 -1.57142857 -3.57142857 -1.57142857 0 0 Z " fill="#606396" transform="translate(302,444)"/>
<path d="M0 0 C-0.33 0.99 -0.66 1.98 -1 3 C-4.63 3 -8.26 3 -12 3 C-7.74582052 0.87291026 -4.71473296 0 0 0 Z " fill="#4A5193" transform="translate(289,390)"/>
<path d="M0 0 C0 2 0 2 -1.625 3.6875 C-4.77833336 5.43013159 -6.58419039 4.8539524 -10 4 C-6.86268382 1.90845588 -3.85464592 0 0 0 Z " fill="#40498A" transform="translate(309,383)"/>
<path d="M0 0 C2 3 2 3 2 5 C0.35 5.66 -1.3 6.32 -3 7 C-3.66 6.34 -4.32 5.68 -5 5 C-3.35 3.35 -1.7 1.7 0 0 Z " fill="#3F4B8E" transform="translate(353,352)"/>
<path d="M0 0 C0.99 0.33 1.98 0.66 3 1 C2.67 4.3 2.34 7.6 2 11 C-0.10814567 6.78370866 -0.17700355 4.60209225 0 0 Z " fill="#6A70AB" transform="translate(447,169)"/>
<path d="M0 0 C4.50802601 1.25805377 7.4912812 2.90407165 11 6 C7.36029133 6.42820102 5.95430537 5.97413512 2.6875 4.125 C1.800625 3.42375 0.91375 2.7225 0 2 C0 1.34 0 0.68 0 0 Z " fill="#8E97C1" transform="translate(291,49)"/>
<path d="M0 0 C1.65 0 3.3 0 5 0 C2.45543849 2.96865509 -0.48994665 4.3619751 -4 6 C-3.67 4.68 -3.34 3.36 -3 2 C-2.34 2.33 -1.68 2.66 -1 3 C-0.67 2.01 -0.34 1.02 0 0 Z " fill="#696BA2" transform="translate(350,413)"/>
<path d="M0 0 C2.37948772 0.17625835 3.70225849 0.69719773 5.37890625 2.40234375 C6.62115486 3.90649092 7.81376056 5.45129851 9 7 C6 7 6 7 3.8125 5.125 C2 3 2 3 2 1 C1.34 0.67 0.68 0.34 0 0 Z " fill="#3F478B" transform="translate(147,354)"/>
<path d="M0 0 C2.97 0.33 5.94 0.66 9 1 C9 2.32 9 3.64 9 5 C5.54074837 3.7508258 2.85306797 2.32472205 0 0 Z " fill="#4D56A1" transform="translate(365,314)"/>
<path d="M0 0 C4.55384615 -0.36923077 4.55384615 -0.36923077 6.8125 1.5 C7.204375 1.995 7.59625 2.49 8 3 C5.21176345 4.0326802 4.1322726 4.04509293 1.25 3.0625 C0.5075 2.711875 -0.235 2.36125 -1 2 C-0.67 1.34 -0.34 0.68 0 0 Z " fill="#6F76B9" transform="translate(298,109)"/>
<path d="M0 0 C3.1875 -0.3125 3.1875 -0.3125 6 0 C3.47043472 3.0916909 0.77545388 3.90931332 -3 5 C-1.875 2.5 -1.875 2.5 0 0 Z " fill="#747AA4" transform="translate(266,460)"/>
<path d="M0 0 C0.66 0.33 1.32 0.66 2 1 C2 1.99 2 2.98 2 4 C2.66 3.01 3.32 2.02 4 1 C4.33 2.32 4.66 3.64 5 5 C4.01 5.495 4.01 5.495 3 6 C2.01 5.67 1.02 5.34 0 5 C-0.75 3 -0.75 3 -1 1 C-0.67 0.67 -0.34 0.34 0 0 Z " fill="#273187" transform="translate(323,423)"/>
<path d="M0 0 C1.65 0 3.3 0 5 0 C2.47043472 3.0916909 -0.22454612 3.90931332 -4 5 C-3.67 4.01 -3.34 3.02 -3 2 C-2.01 2 -1.02 2 0 2 C0 1.34 0 0.68 0 0 Z " fill="#64669B" transform="translate(359,408)"/>
<path d="M0 0 C-3.4019487 2.09350689 -6.05272412 2.17942163 -10 2 C-10 1.34 -10 0.68 -10 0 C-6.42355152 -1.2380014 -3.66305234 -0.74926071 0 0 Z " fill="#343C87" transform="translate(278,394)"/>
<path d="M0 0 C-0.66 1.65 -1.32 3.3 -2 5 C-4.97 4.505 -4.97 4.505 -8 4 C-2.7826087 0 -2.7826087 0 0 0 Z " fill="#6D76B2" transform="translate(222,182)"/>
<path d="M0 0 C1.32 0 2.64 0 4 0 C2.55746343 3.36591866 0.66735273 5.51047079 -2 8 C-1.34 5.36 -0.68 2.72 0 0 Z " fill="#626CAC" transform="translate(129,161)"/>
<path d="M0 0 C3.3 1.65 6.6 3.3 10 5 C6 6 6 6 3.75 5.0625 C3.1725 4.711875 2.595 4.36125 2 4 C2 3.34 2 2.68 2 2 C1.34 2 0.68 2 0 2 C0 1.34 0 0.68 0 0 Z " fill="#999EC3" transform="translate(346,79)"/>
<path d="M0 0 C5.53846154 0.61538462 5.53846154 0.61538462 7.875 2.5625 C8.431875 3.2740625 8.431875 3.2740625 9 4 C8.01 4.495 8.01 4.495 7 5 C4.5249829 3.88568235 2.32116581 2.41849022 0 1 C0 0.67 0 0.34 0 0 Z " fill="#7B7FAA" transform="translate(231,461)"/>
<path d="M0 0 C-6.75 4 -6.75 4 -9 4 C-8.67 2.68 -8.34 1.36 -8 0 C-4.94736336 -0.98120464 -3.05263664 -0.98120464 0 0 Z " fill="#66689E" transform="translate(373,404)"/>
<path d="M0 0 C1 2 1 2 0.8125 3.9375 C-0.22687271 6.57590764 -1.6538835 7.48637645 -4 9 C-4.66 8.67 -5.32 8.34 -6 8 C-4.02 5.36 -2.04 2.72 0 0 Z " fill="#DAE0F3" transform="translate(134,160)"/>
<path d="M0 0 C3.33523252 1.38009621 5.18607951 2.84950652 7 6 C6.67 6.99 6.34 7.98 6 9 C4.99406757 7.8803014 3.9954151 6.7540588 3 5.625 C2.443125 4.99851563 1.88625 4.37203125 1.3125 3.7265625 C0 2 0 2 0 0 Z " fill="#666EAC" transform="translate(360,151)"/>
<path d="M0 0 C1.31571603 0.2547514 2.62760376 0.52934141 3.9375 0.8125 C4.66839844 0.96332031 5.39929688 1.11414063 6.15234375 1.26953125 C6.76207031 1.51058594 7.37179688 1.75164062 8 2 C8.33 2.99 8.66 3.98 9 5 C5.22454612 3.90931332 2.52956528 3.0916909 0 0 Z " fill="#6F71A8" transform="translate(176,430)"/>
<path d="M0 0 C-5.14285714 4.42857143 -5.14285714 4.42857143 -9 5 C-7.35234966 0.05704899 -4.76872479 -0.25776891 0 0 Z " fill="#676BA7" transform="translate(382,398)"/>
<path d="M0 0 C3.37503669 1.1858237 5.64722731 2.27573689 8 5 C4.86248779 5 3.60242414 4.64820195 1 3 C0.67 2.01 0.34 1.02 0 0 Z " fill="#545890" transform="translate(120,397)"/>
<path d="M0 0 C0.515625 0.680625 1.03125 1.36125 1.5625 2.0625 C-2.49356165 1.59449289 -5.90338679 1.18296792 -9.4375 -0.9375 C-3.0375 -2.41442308 -3.0375 -2.41442308 0 0 Z " fill="#CBD1E8" transform="translate(215.4375,388.9375)"/>
<path d="M0 0 C3.55780196 0.60990891 6.6828589 1.5783681 10 3 C6.18510326 4.46726798 3.70988378 3.43336419 0 2 C0 1.34 0 0.68 0 0 Z " fill="#6870AD" transform="translate(275,181)"/>
<path d="M0 0 C2.75 -0.25 2.75 -0.25 6 0 C8.375 2 8.375 2 10 4 C8.51882199 3.71872579 7.04006751 3.42466268 5.5625 3.125 C4.73878906 2.96257812 3.91507812 2.80015625 3.06640625 2.6328125 C2.38449219 2.42398438 1.70257813 2.21515625 1 2 C0.67 1.34 0.34 0.68 0 0 Z " fill="#747DB0" transform="translate(285,106)"/>
<path d="M0 0 C4 1 4 1 6 3 C5.67 4.32 5.34 5.64 5 7 C3.35 4.69 1.7 2.38 0 0 Z " fill="#DCE0F1" transform="translate(133,336)"/>
<path d="M0 0 C0.33 0.66 0.66 1.32 1 2 C1.66 2.33 2.32 2.66 3 3 C1.68 4.32 0.36 5.64 -1 7 C-2 4 -2 4 -1.0625 1.8125 C-0.5365625 0.9153125 -0.5365625 0.9153125 0 0 Z " fill="#E7EEF3" transform="translate(371,325)"/>
<path d="M0 0 C0.33 0.66 0.66 1.32 1 2 C0.34 2.66 -0.32 3.32 -1 4 C-1 4.99 -1 5.98 -1 7 C-1.99 7 -2.98 7 -4 7 C-3.6875 4.625 -3.6875 4.625 -3 2 C-2.01 1.34 -1.02 0.68 0 0 Z " fill="#EDF2F6" transform="translate(164,131)"/>
<path d="M0 0 C-3.6441774 2.4294516 -5.71241272 2.16179575 -10 2 C-6.80505194 -1.19494806 -4.22040044 -1.35655728 0 0 Z " fill="#E5EBFA" transform="translate(218,108)"/>
<path d="M0 0 C0.99 0 1.98 0 3 0 C1.92598892 2.91517292 1.22189824 4.77810176 -1 7 C-1 4.37886292 -0.68707555 2.49064888 0 0 Z " fill="#5965B2" transform="translate(139,88)"/>
<path d="M0 0 C0.33 0.99 0.66 1.98 1 3 C-3.75 6 -3.75 6 -6 6 C-5.67 5.01 -5.34 4.02 -5 3 C-4.01 3 -3.02 3 -2 3 C-2 2.34 -2 1.68 -2 1 C-1.34 0.67 -0.68 0.34 0 0 Z " fill="#5D65AC" transform="translate(186,62)"/>
<path d="M0 0 C2.9375 0.8125 2.9375 0.8125 6 2 C6.33 2.99 6.66 3.98 7 5 C4.0625 4.1875 4.0625 4.1875 1 3 C0.67 2.01 0.34 1.02 0 0 Z " fill="#8185B8" transform="translate(268,36)"/>
</svg>
